<?xml version="1.0" standalone="no"?><!DOCTYPE svg PUBLIC "-//W3C//DTD SVG 1.1//EN" "http://www.w3.org/Graphics/SVG/1.1/DTD/svg11.dtd"><svg t="1706171984749" class="icon" viewBox="0 0 1024 1024" version="1.1" xmlns="http://www.w3.org/2000/svg" p-id="1474" xmlns:xlink="http://www.w3.org/1999/xlink" width="200" height="200"><path d="M673.28 331.968a32 32 0 0 0-45.312 0L512 448 395.904 331.968a32 32 0 0 0-45.248 0l-18.752 18.752a32 32 0 0 0 0 45.248L448 512 331.904 628.032a32 32 0 0 0 0 45.248l18.752 18.752a32 32 0 0 0 45.248 0L512 576l116.032 116.032a32 32 0 0 0 45.312 0l18.688-18.752a32 32 0 0 0 0-45.248L576 512l116.032-116.032a32 32 0 0 0 0-45.248l-18.688-18.752z" fill="#4E5969" p-id="1475"></path></svg>